ISO-10303-21;
HEADER;
/* Generated by software containing ST-Developer
 * from STEP Tools, Inc. (www.steptools.com) 
 */

FILE_DESCRIPTION(
/* description */ (''),
/* implementation_level */ '2;1');

FILE_NAME(
/* name */ 'BottomCase.step',
/* time_stamp */ '2026-08-14T20:43:51+01:00',
/* author */ (''),
/* organization */ (''),
/* preprocessor_version */ 'ST-DEVELOPER v20.1',
/* originating_system */ 'Autodesk Translation Framework v15.8.0.0',
/* authorisation */ '');

FILE_SCHEMA (('AUTOMOTIVE_DESIGN { 1 0 10303 214 3 1 1 }'));
ENDSEC;

DATA;
#10=MECHANICAL_DESIGN_GEOMETRIC_PRESENTATION_REPRESENTATION('',(#13),#1157);
#11=SHAPE_REPRESENTATION_RELATIONSHIP('SRR','None',#1164,#12);
#12=ADVANCED_BREP_SHAPE_REPRESENTATION('',(#14),#1156);
#13=STYLED_ITEM('',(#1173),#14);
#14=MANIFOLD_SOLID_BREP('BottomCase',#665);
#15=FACE_BOUND('',#89,.T.);
#16=FACE_BOUND('',#94,.T.);
#17=FACE_BOUND('',#99,.T.);
#18=FACE_BOUND('',#117,.T.);
#19=FACE_BOUND('',#119,.T.);
#20=FACE_BOUND('',#123,.T.);
#21=FACE_BOUND('',#124,.T.);
#22=FACE_BOUND('',#125,.T.);
#23=PLANE('',#682);
#24=PLANE('',#686);
#25=PLANE('',#690);
#26=PLANE('',#694);
#27=PLANE('',#698);
#28=PLANE('',#702);
#29=PLANE('',#703);
#30=PLANE('',#707);
#31=PLANE('',#711);
#32=PLANE('',#715);
#33=PLANE('',#719);
#34=PLANE('',#723);
#35=PLANE('',#727);
#36=PLANE('',#731);
#37=PLANE('',#735);
#38=PLANE('',#736);
#39=PLANE('',#743);
#40=PLANE('',#744);
#41=PLANE('',#747);
#42=PLANE('',#748);
#43=PLANE('',#751);
#44=PLANE('',#754);
#45=FACE_OUTER_BOUND('',#85,.T.);
#46=FACE_OUTER_BOUND('',#86,.T.);
#47=FACE_OUTER_BOUND('',#87,.T.);
#48=FACE_OUTER_BOUND('',#88,.T.);
#49=FACE_OUTER_BOUND('',#90,.T.);
#50=FACE_OUTER_BOUND('',#91,.T.);
#51=FACE_OUTER_BOUND('',#92,.T.);
#52=FACE_OUTER_BOUND('',#93,.T.);
#53=FACE_OUTER_BOUND('',#95,.T.);
#54=FACE_OUTER_BOUND('',#96,.T.);
#55=FACE_OUTER_BOUND('',#97,.T.);
#56=FACE_OUTER_BOUND('',#98,.T.);
#57=FACE_OUTER_BOUND('',#100,.T.);
#58=FACE_OUTER_BOUND('',#101,.T.);
#59=FACE_OUTER_BOUND('',#102,.T.);
#60=FACE_OUTER_BOUND('',#103,.T.);
#61=FACE_OUTER_BOUND('',#104,.T.);
#62=FACE_OUTER_BOUND('',#105,.T.);
#63=FACE_OUTER_BOUND('',#106,.T.);
#64=FACE_OUTER_BOUND('',#107,.T.);
#65=FACE_OUTER_BOUND('',#108,.T.);
#66=FACE_OUTER_BOUND('',#109,.T.);
#67=FACE_OUTER_BOUND('',#110,.T.);
#68=FACE_OUTER_BOUND('',#111,.T.);
#69=FACE_OUTER_BOUND('',#112,.T.);
#70=FACE_OUTER_BOUND('',#113,.T.);
#71=FACE_OUTER_BOUND('',#114,.T.);
#72=FACE_OUTER_BOUND('',#115,.T.);
#73=FACE_OUTER_BOUND('',#116,.T.);
#74=FACE_OUTER_BOUND('',#118,.T.);
#75=FACE_OUTER_BOUND('',#120,.T.);
#76=FACE_OUTER_BOUND('',#121,.T.);
#77=FACE_OUTER_BOUND('',#122,.T.);
#78=FACE_OUTER_BOUND('',#126,.T.);
#79=FACE_OUTER_BOUND('',#127,.T.);
#80=FACE_OUTER_BOUND('',#128,.T.);
#81=FACE_OUTER_BOUND('',#129,.T.);
#82=FACE_OUTER_BOUND('',#130,.T.);
#83=FACE_OUTER_BOUND('',#131,.T.);
#84=FACE_OUTER_BOUND('',#132,.T.);
#85=EDGE_LOOP('',(#427,#428,#429,#430));
#86=EDGE_LOOP('',(#431));
#87=EDGE_LOOP('',(#432,#433,#434,#435));
#88=EDGE_LOOP('',(#436));
#89=EDGE_LOOP('',(#437));
#90=EDGE_LOOP('',(#438,#439,#440,#441));
#91=EDGE_LOOP('',(#442));
#92=EDGE_LOOP('',(#443,#444,#445,#446));
#93=EDGE_LOOP('',(#447));
#94=EDGE_LOOP('',(#448));
#95=EDGE_LOOP('',(#449,#450,#451,#452));
#96=EDGE_LOOP('',(#453));
#97=EDGE_LOOP('',(#454,#455,#456,#457));
#98=EDGE_LOOP('',(#458));
#99=EDGE_LOOP('',(#459));
#100=EDGE_LOOP('',(#460,#461,#462,#463));
#101=EDGE_LOOP('',(#464,#465,#466,#467));
#102=EDGE_LOOP('',(#468,#469,#470,#471));
#103=EDGE_LOOP('',(#472,#473,#474,#475));
#104=EDGE_LOOP('',(#476,#477,#478,#479));
#105=EDGE_LOOP('',(#480,#481,#482,#483));
#106=EDGE_LOOP('',(#484,#485,#486,#487));
#107=EDGE_LOOP('',(#488,#489,#490,#491));
#108=EDGE_LOOP('',(#492,#493,#494,#495));
#109=EDGE_LOOP('',(#496,#497,#498,#499));
#110=EDGE_LOOP('',(#500,#501,#502,#503));
#111=EDGE_LOOP('',(#504,#505,#506,#507));
#112=EDGE_LOOP('',(#508,#509,#510,#511));
#113=EDGE_LOOP('',(#512,#513,#514,#515));
#114=EDGE_LOOP('',(#516,#517,#518,#519));
#115=EDGE_LOOP('',(#520,#521,#522,#523));
#116=EDGE_LOOP('',(#524,#525,#526,#527,#528,#529,#530,#531));
#117=EDGE_LOOP('',(#532,#533,#534,#535,#536,#537,#538,#539));
#118=EDGE_LOOP('',(#540,#541,#542,#543,#544,#545,#546,#547));
#119=EDGE_LOOP('',(#548,#549,#550,#551,#552,#553,#554,#555));
#120=EDGE_LOOP('',(#556,#557,#558,#559));
#121=EDGE_LOOP('',(#560,#561,#562,#563));
#122=EDGE_LOOP('',(#564,#565,#566,#567,#568,#569,#570,#571));
#123=EDGE_LOOP('',(#572));
#124=EDGE_LOOP('',(#573));
#125=EDGE_LOOP('',(#574));
#126=EDGE_LOOP('',(#575,#576,#577,#578));
#127=EDGE_LOOP('',(#579,#580,#581,#582));
#128=EDGE_LOOP('',(#583,#584,#585,#586));
#129=EDGE_LOOP('',(#587,#588,#589,#590));
#130=EDGE_LOOP('',(#591,#592,#593,#594));
#131=EDGE_LOOP('',(#595,#596,#597,#598));
#132=EDGE_LOOP('',(#599,#600,#601,#602,#603,#604,#605,#606));
#133=LINE('',#968,#187);
#134=LINE('',#975,#188);
#135=LINE('',#982,#189);
#136=LINE('',#989,#190);
#137=LINE('',#996,#191);
#138=LINE('',#1003,#192);
#139=LINE('',#1009,#193);
#140=LINE('',#1011,#194);
#141=LINE('',#1013,#195);
#142=LINE('',#1014,#196);
#143=LINE('',#1020,#197);
#144=LINE('',#1023,#198);
#145=LINE('',#1025,#199);
#146=LINE('',#1026,#200);
#147=LINE('',#1032,#201);
#148=LINE('',#1035,#202);
#149=LINE('',#1037,#203);
#150=LINE('',#1038,#204);
#151=LINE('',#1044,#205);
#152=LINE('',#1047,#206);
#153=LINE('',#1049,#207);
#154=LINE('',#1050,#208);
#155=LINE('',#1057,#209);
#156=LINE('',#1059,#210);
#157=LINE('',#1061,#211);
#158=LINE('',#1062,#212);
#159=LINE('',#1068,#213);
#160=LINE('',#1071,#214);
#161=LINE('',#1073,#215);
#162=LINE('',#1074,#216);
#163=LINE('',#1080,#217);
#164=LINE('',#1083,#218);
#165=LINE('',#1085,#219);
#166=LINE('',#1086,#220);
#167=LINE('',#1092,#221);
#168=LINE('',#1095,#222);
#169=LINE('',#1097,#223);
#170=LINE('',#1098,#224);
#171=LINE('',#1108,#225);
#172=LINE('',#1112,#226);
#173=LINE('',#1116,#227);
#174=LINE('',#1119,#228);
#175=LINE('',#1124,#229);
#176=LINE('',#1125,#230);
#177=LINE('',#1128,#231);
#178=LINE('',#1129,#232);
#179=LINE('',#1135,#233);
#180=LINE('',#1136,#234);
#181=LINE('',#1139,#235);
#182=LINE('',#1140,#236);
#183=LINE('',#1142,#237);
#184=LINE('',#1146,#238);
#185=LINE('',#1149,#239);
#186=LINE('',#1150,#240);
#187=VECTOR('',#761,0.849999999999991);
#188=VECTOR('',#770,2.99999999999999);
#189=VECTOR('',#779,0.849999999999991);
#190=VECTOR('',#788,2.99999999999999);
#191=VECTOR('',#797,0.85);
#192=VECTOR('',#806,3.00000000000001);
#193=VECTOR('',#813,10.);
#194=VECTOR('',#814,10.);
#195=VECTOR('',#815,10.);
#196=VECTOR('',#816,10.);
#197=VECTOR('',#823,10.);
#198=VECTOR('',#826,10.);
#199=VECTOR('',#827,10.);
#200=VECTOR('',#828,10.);
#201=VECTOR('',#835,10.);
#202=VECTOR('',#838,10.);
#203=VECTOR('',#839,10.);
#204=VECTOR('',#840,10.);
#205=VECTOR('',#847,10.);
#206=VECTOR('',#850,10.);
#207=VECTOR('',#851,10.);
#208=VECTOR('',#852,10.);
#209=VECTOR('',#861,10.);
#210=VECTOR('',#862,10.);
#211=VECTOR('',#863,10.);
#212=VECTOR('',#864,10.);
#213=VECTOR('',#871,10.);
#214=VECTOR('',#874,10.);
#215=VECTOR('',#875,10.);
#216=VECTOR('',#876,10.);
#217=VECTOR('',#883,10.);
#218=VECTOR('',#886,10.);
#219=VECTOR('',#887,10.);
#220=VECTOR('',#888,10.);
#221=VECTOR('',#895,10.);
#222=VECTOR('',#898,10.);
#223=VECTOR('',#899,10.);
#224=VECTOR('',#900,10.);
#225=VECTOR('',#913,10.);
#226=VECTOR('',#916,10.);
#227=VECTOR('',#919,10.);
#228=VECTOR('',#922,10.);
#229=VECTOR('',#927,10.);
#230=VECTOR('',#928,10.);
#231=VECTOR('',#931,10.);
#232=VECTOR('',#932,10.);
#233=VECTOR('',#939,10.);
#234=VECTOR('',#940,10.);
#235=VECTOR('',#943,10.);
#236=VECTOR('',#944,10.);
#237=VECTOR('',#947,10.);
#238=VECTOR('',#952,10.);
#239=VECTOR('',#955,10.);
#240=VECTOR('',#956,10.);
#241=CIRCLE('',#680,0.849999999999991);
#242=CIRCLE('',#681,0.849999999999991);
#243=CIRCLE('',#684,2.99999999999999);
#244=CIRCLE('',#685,2.99999999999999);
#245=CIRCLE('',#688,0.849999999999991);
#246=CIRCLE('',#689,0.849999999999991);
#247=CIRCLE('',#692,2.99999999999999);
#248=CIRCLE('',#693,2.99999999999999);
#249=CIRCLE('',#696,0.85);
#250=CIRCLE('',#697,0.85);
#251=CIRCLE('',#700,3.00000000000001);
#252=CIRCLE('',#701,3.00000000000001);
#253=CIRCLE('',#705,0.800000000000027);
#254=CIRCLE('',#706,0.800000000000027);
#255=CIRCLE('',#709,0.800000000000054);
#256=CIRCLE('',#710,0.800000000000054);
#257=CIRCLE('',#713,0.800000000000036);
#258=CIRCLE('',#714,0.800000000000036);
#259=CIRCLE('',#717,0.80000000000001);
#260=CIRCLE('',#718,0.80000000000001);
#261=CIRCLE('',#721,1.80000000000003);
#262=CIRCLE('',#722,1.80000000000003);
#263=CIRCLE('',#725,1.80000000000005);
#264=CIRCLE('',#726,1.80000000000005);
#265=CIRCLE('',#729,1.80000000000003);
#266=CIRCLE('',#730,1.80000000000003);
#267=CIRCLE('',#733,1.80000000000001);
#268=CIRCLE('',#734,1.80000000000001);
#269=CIRCLE('',#737,4.00000000000002);
#270=CIRCLE('',#738,4.00000000000001);
#271=CIRCLE('',#739,4.00000000000002);
#272=CIRCLE('',#740,4.00000000000002);
#273=CIRCLE('',#742,4.00000000000002);
#274=CIRCLE('',#746,4.00000000000001);
#275=CIRCLE('',#750,4.00000000000002);
#276=CIRCLE('',#753,4.00000000000002);
#277=VERTEX_POINT('',#965);
#278=VERTEX_POINT('',#967);
#279=VERTEX_POINT('',#972);
#280=VERTEX_POINT('',#974);
#281=VERTEX_POINT('',#979);
#282=VERTEX_POINT('',#981);
#283=VERTEX_POINT('',#986);
#284=VERTEX_POINT('',#988);
#285=VERTEX_POINT('',#993);
#286=VERTEX_POINT('',#995);
#287=VERTEX_POINT('',#1000);
#288=VERTEX_POINT('',#1002);
#289=VERTEX_POINT('',#1007);
#290=VERTEX_POINT('',#1008);
#291=VERTEX_POINT('',#1010);
#292=VERTEX_POINT('',#1012);
#293=VERTEX_POINT('',#1016);
#294=VERTEX_POINT('',#1018);
#295=VERTEX_POINT('',#1022);
#296=VERTEX_POINT('',#1024);
#297=VERTEX_POINT('',#1028);
#298=VERTEX_POINT('',#1030);
#299=VERTEX_POINT('',#1034);
#300=VERTEX_POINT('',#1036);
#301=VERTEX_POINT('',#1040);
#302=VERTEX_POINT('',#1042);
#303=VERTEX_POINT('',#1046);
#304=VERTEX_POINT('',#1048);
#305=VERTEX_POINT('',#1055);
#306=VERTEX_POINT('',#1056);
#307=VERTEX_POINT('',#1058);
#308=VERTEX_POINT('',#1060);
#309=VERTEX_POINT('',#1064);
#310=VERTEX_POINT('',#1066);
#311=VERTEX_POINT('',#1070);
#312=VERTEX_POINT('',#1072);
#313=VERTEX_POINT('',#1076);
#314=VERTEX_POINT('',#1078);
#315=VERTEX_POINT('',#1082);
#316=VERTEX_POINT('',#1084);
#317=VERTEX_POINT('',#1088);
#318=VERTEX_POINT('',#1090);
#319=VERTEX_POINT('',#1094);
#320=VERTEX_POINT('',#1096);
#321=VERTEX_POINT('',#1104);
#322=VERTEX_POINT('',#1105);
#323=VERTEX_POINT('',#1107);
#324=VERTEX_POINT('',#1109);
#325=VERTEX_POINT('',#1111);
#326=VERTEX_POINT('',#1113);
#327=VERTEX_POINT('',#1115);
#328=VERTEX_POINT('',#1117);
#329=VERTEX_POINT('',#1121);
#330=VERTEX_POINT('',#1122);
#331=VERTEX_POINT('',#1127);
#332=VERTEX_POINT('',#1132);
#333=VERTEX_POINT('',#1133);
#334=VERTEX_POINT('',#1138);
#335=VERTEX_POINT('',#1144);
#336=VERTEX_POINT('',#1148);
#337=EDGE_CURVE('',#277,#277,#241,.T.);
#338=EDGE_CURVE('',#277,#278,#133,.T.);
#339=EDGE_CURVE('',#278,#278,#242,.T.);
#340=EDGE_CURVE('',#279,#279,#243,.T.);
#341=EDGE_CURVE('',#279,#280,#134,.T.);
#342=EDGE_CURVE('',#280,#280,#244,.T.);
#343=EDGE_CURVE('',#281,#281,#245,.T.);
#344=EDGE_CURVE('',#281,#282,#135,.T.);
#345=EDGE_CURVE('',#282,#282,#246,.T.);
#346=EDGE_CURVE('',#283,#283,#247,.T.);
#347=EDGE_CURVE('',#283,#284,#136,.T.);
#348=EDGE_CURVE('',#284,#284,#248,.T.);
#349=EDGE_CURVE('',#285,#285,#249,.T.);
#350=EDGE_CURVE('',#285,#286,#137,.T.);
#351=EDGE_CURVE('',#286,#286,#250,.T.);
#352=EDGE_CURVE('',#287,#287,#251,.T.);
#353=EDGE_CURVE('',#287,#288,#138,.T.);
#354=EDGE_CURVE('',#288,#288,#252,.T.);
#355=EDGE_CURVE('',#289,#290,#139,.T.);
#356=EDGE_CURVE('',#289,#291,#140,.T.);
#357=EDGE_CURVE('',#292,#291,#141,.T.);
#358=EDGE_CURVE('',#290,#292,#142,.T.);
#359=EDGE_CURVE('',#290,#293,#253,.T.);
#360=EDGE_CURVE('',#294,#292,#254,.T.);
#361=EDGE_CURVE('',#293,#294,#143,.T.);
#362=EDGE_CURVE('',#293,#295,#144,.T.);
#363=EDGE_CURVE('',#296,#294,#145,.T.);
#364=EDGE_CURVE('',#295,#296,#146,.T.);
#365=EDGE_CURVE('',#295,#297,#255,.T.);
#366=EDGE_CURVE('',#298,#296,#256,.T.);
#367=EDGE_CURVE('',#297,#298,#147,.T.);
#368=EDGE_CURVE('',#297,#299,#148,.T.);
#369=EDGE_CURVE('',#300,#298,#149,.T.);
#370=EDGE_CURVE('',#299,#300,#150,.T.);
#371=EDGE_CURVE('',#299,#301,#257,.T.);
#372=EDGE_CURVE('',#302,#300,#258,.T.);
#373=EDGE_CURVE('',#301,#302,#151,.T.);
#374=EDGE_CURVE('',#301,#303,#152,.T.);
#375=EDGE_CURVE('',#304,#302,#153,.T.);
#376=EDGE_CURVE('',#303,#304,#154,.T.);
#377=EDGE_CURVE('',#303,#289,#259,.T.);
#378=EDGE_CURVE('',#291,#304,#260,.T.);
#379=EDGE_CURVE('',#305,#306,#155,.T.);
#380=EDGE_CURVE('',#305,#307,#156,.T.);
#381=EDGE_CURVE('',#308,#307,#157,.T.);
#382=EDGE_CURVE('',#306,#308,#158,.T.);
#383=EDGE_CURVE('',#306,#309,#261,.T.);
#384=EDGE_CURVE('',#310,#308,#262,.T.);
#385=EDGE_CURVE('',#309,#310,#159,.T.);
#386=EDGE_CURVE('',#309,#311,#160,.T.);
#387=EDGE_CURVE('',#312,#310,#161,.T.);
#388=EDGE_CURVE('',#311,#312,#162,.T.);
#389=EDGE_CURVE('',#311,#313,#263,.T.);
#390=EDGE_CURVE('',#314,#312,#264,.T.);
#391=EDGE_CURVE('',#313,#314,#163,.T.);
#392=EDGE_CURVE('',#313,#315,#164,.T.);
#393=EDGE_CURVE('',#316,#314,#165,.T.);
#394=EDGE_CURVE('',#315,#316,#166,.T.);
#395=EDGE_CURVE('',#315,#317,#265,.T.);
#396=EDGE_CURVE('',#318,#316,#266,.T.);
#397=EDGE_CURVE('',#317,#318,#167,.T.);
#398=EDGE_CURVE('',#317,#319,#168,.T.);
#399=EDGE_CURVE('',#320,#318,#169,.T.);
#400=EDGE_CURVE('',#319,#320,#170,.T.);
#401=EDGE_CURVE('',#319,#305,#267,.T.);
#402=EDGE_CURVE('',#307,#320,#268,.T.);
#403=EDGE_CURVE('',#321,#322,#269,.T.);
#404=EDGE_CURVE('',#323,#321,#171,.T.);
#405=EDGE_CURVE('',#324,#323,#270,.T.);
#406=EDGE_CURVE('',#325,#324,#172,.T.);
#407=EDGE_CURVE('',#326,#325,#271,.T.);
#408=EDGE_CURVE('',#327,#326,#173,.T.);
#409=EDGE_CURVE('',#328,#327,#272,.T.);
#410=EDGE_CURVE('',#322,#328,#174,.T.);
#411=EDGE_CURVE('',#329,#330,#273,.T.);
#412=EDGE_CURVE('',#330,#321,#175,.T.);
#413=EDGE_CURVE('',#322,#329,#176,.T.);
#414=EDGE_CURVE('',#331,#328,#177,.T.);
#415=EDGE_CURVE('',#329,#331,#178,.T.);
#416=EDGE_CURVE('',#332,#333,#274,.T.);
#417=EDGE_CURVE('',#333,#324,#179,.T.);
#418=EDGE_CURVE('',#323,#332,#180,.T.);
#419=EDGE_CURVE('',#334,#333,#181,.T.);
#420=EDGE_CURVE('',#325,#334,#182,.T.);
#421=EDGE_CURVE('',#332,#330,#183,.T.);
#422=EDGE_CURVE('',#334,#335,#275,.T.);
#423=EDGE_CURVE('',#335,#326,#184,.T.);
#424=EDGE_CURVE('',#336,#335,#185,.T.);
#425=EDGE_CURVE('',#327,#336,#186,.T.);
#426=EDGE_CURVE('',#336,#331,#276,.T.);
#427=ORIENTED_EDGE('',*,*,#337,.F.);
#428=ORIENTED_EDGE('',*,*,#338,.T.);
#429=ORIENTED_EDGE('',*,*,#339,.T.);
#430=ORIENTED_EDGE('',*,*,#338,.F.);
#431=ORIENTED_EDGE('',*,*,#339,.F.);
#432=ORIENTED_EDGE('',*,*,#340,.F.);
#433=ORIENTED_EDGE('',*,*,#341,.T.);
#434=ORIENTED_EDGE('',*,*,#342,.F.);
#435=ORIENTED_EDGE('',*,*,#341,.F.);
#436=ORIENTED_EDGE('',*,*,#340,.T.);
#437=ORIENTED_EDGE('',*,*,#337,.T.);
#438=ORIENTED_EDGE('',*,*,#343,.F.);
#439=ORIENTED_EDGE('',*,*,#344,.T.);
#440=ORIENTED_EDGE('',*,*,#345,.T.);
#441=ORIENTED_EDGE('',*,*,#344,.F.);
#442=ORIENTED_EDGE('',*,*,#345,.F.);
#443=ORIENTED_EDGE('',*,*,#346,.F.);
#444=ORIENTED_EDGE('',*,*,#347,.T.);
#445=ORIENTED_EDGE('',*,*,#348,.F.);
#446=ORIENTED_EDGE('',*,*,#347,.F.);
#447=ORIENTED_EDGE('',*,*,#346,.T.);
#448=ORIENTED_EDGE('',*,*,#343,.T.);
#449=ORIENTED_EDGE('',*,*,#349,.F.);
#450=ORIENTED_EDGE('',*,*,#350,.T.);
#451=ORIENTED_EDGE('',*,*,#351,.T.);
#452=ORIENTED_EDGE('',*,*,#350,.F.);
#453=ORIENTED_EDGE('',*,*,#351,.F.);
#454=ORIENTED_EDGE('',*,*,#352,.F.);
#455=ORIENTED_EDGE('',*,*,#353,.T.);
#456=ORIENTED_EDGE('',*,*,#354,.F.);
#457=ORIENTED_EDGE('',*,*,#353,.F.);
#458=ORIENTED_EDGE('',*,*,#352,.T.);
#459=ORIENTED_EDGE('',*,*,#349,.T.);
#460=ORIENTED_EDGE('',*,*,#355,.F.);
#461=ORIENTED_EDGE('',*,*,#356,.T.);
#462=ORIENTED_EDGE('',*,*,#357,.F.);
#463=ORIENTED_EDGE('',*,*,#358,.F.);
#464=ORIENTED_EDGE('',*,*,#359,.F.);
#465=ORIENTED_EDGE('',*,*,#358,.T.);
#466=ORIENTED_EDGE('',*,*,#360,.F.);
#467=ORIENTED_EDGE('',*,*,#361,.F.);
#468=ORIENTED_EDGE('',*,*,#362,.F.);
#469=ORIENTED_EDGE('',*,*,#361,.T.);
#470=ORIENTED_EDGE('',*,*,#363,.F.);
#471=ORIENTED_EDGE('',*,*,#364,.F.);
#472=ORIENTED_EDGE('',*,*,#365,.F.);
#473=ORIENTED_EDGE('',*,*,#364,.T.);
#474=ORIENTED_EDGE('',*,*,#366,.F.);
#475=ORIENTED_EDGE('',*,*,#367,.F.);
#476=ORIENTED_EDGE('',*,*,#368,.F.);
#477=ORIENTED_EDGE('',*,*,#367,.T.);
#478=ORIENTED_EDGE('',*,*,#369,.F.);
#479=ORIENTED_EDGE('',*,*,#370,.F.);
#480=ORIENTED_EDGE('',*,*,#371,.F.);
#481=ORIENTED_EDGE('',*,*,#370,.T.);
#482=ORIENTED_EDGE('',*,*,#372,.F.);
#483=ORIENTED_EDGE('',*,*,#373,.F.);
#484=ORIENTED_EDGE('',*,*,#374,.F.);
#485=ORIENTED_EDGE('',*,*,#373,.T.);
#486=ORIENTED_EDGE('',*,*,#375,.F.);
#487=ORIENTED_EDGE('',*,*,#376,.F.);
#488=ORIENTED_EDGE('',*,*,#377,.F.);
#489=ORIENTED_EDGE('',*,*,#376,.T.);
#490=ORIENTED_EDGE('',*,*,#378,.F.);
#491=ORIENTED_EDGE('',*,*,#356,.F.);
#492=ORIENTED_EDGE('',*,*,#379,.F.);
#493=ORIENTED_EDGE('',*,*,#380,.T.);
#494=ORIENTED_EDGE('',*,*,#381,.F.);
#495=ORIENTED_EDGE('',*,*,#382,.F.);
#496=ORIENTED_EDGE('',*,*,#383,.F.);
#497=ORIENTED_EDGE('',*,*,#382,.T.);
#498=ORIENTED_EDGE('',*,*,#384,.F.);
#499=ORIENTED_EDGE('',*,*,#385,.F.);
#500=ORIENTED_EDGE('',*,*,#386,.F.);
#501=ORIENTED_EDGE('',*,*,#385,.T.);
#502=ORIENTED_EDGE('',*,*,#387,.F.);
#503=ORIENTED_EDGE('',*,*,#388,.F.);
#504=ORIENTED_EDGE('',*,*,#389,.F.);
#505=ORIENTED_EDGE('',*,*,#388,.T.);
#506=ORIENTED_EDGE('',*,*,#390,.F.);
#507=ORIENTED_EDGE('',*,*,#391,.F.);
#508=ORIENTED_EDGE('',*,*,#392,.F.);
#509=ORIENTED_EDGE('',*,*,#391,.T.);
#510=ORIENTED_EDGE('',*,*,#393,.F.);
#511=ORIENTED_EDGE('',*,*,#394,.F.);
#512=ORIENTED_EDGE('',*,*,#395,.F.);
#513=ORIENTED_EDGE('',*,*,#394,.T.);
#514=ORIENTED_EDGE('',*,*,#396,.F.);
#515=ORIENTED_EDGE('',*,*,#397,.F.);
#516=ORIENTED_EDGE('',*,*,#398,.F.);
#517=ORIENTED_EDGE('',*,*,#397,.T.);
#518=ORIENTED_EDGE('',*,*,#399,.F.);
#519=ORIENTED_EDGE('',*,*,#400,.F.);
#520=ORIENTED_EDGE('',*,*,#401,.F.);
#521=ORIENTED_EDGE('',*,*,#400,.T.);
#522=ORIENTED_EDGE('',*,*,#402,.F.);
#523=ORIENTED_EDGE('',*,*,#380,.F.);
#524=ORIENTED_EDGE('',*,*,#402,.T.);
#525=ORIENTED_EDGE('',*,*,#399,.T.);
#526=ORIENTED_EDGE('',*,*,#396,.T.);
#527=ORIENTED_EDGE('',*,*,#393,.T.);
#528=ORIENTED_EDGE('',*,*,#390,.T.);
#529=ORIENTED_EDGE('',*,*,#387,.T.);
#530=ORIENTED_EDGE('',*,*,#384,.T.);
#531=ORIENTED_EDGE('',*,*,#381,.T.);
#532=ORIENTED_EDGE('',*,*,#378,.T.);
#533=ORIENTED_EDGE('',*,*,#375,.T.);
#534=ORIENTED_EDGE('',*,*,#372,.T.);
#535=ORIENTED_EDGE('',*,*,#369,.T.);
#536=ORIENTED_EDGE('',*,*,#366,.T.);
#537=ORIENTED_EDGE('',*,*,#363,.T.);
#538=ORIENTED_EDGE('',*,*,#360,.T.);
#539=ORIENTED_EDGE('',*,*,#357,.T.);
#540=ORIENTED_EDGE('',*,*,#403,.F.);
#541=ORIENTED_EDGE('',*,*,#404,.F.);
#542=ORIENTED_EDGE('',*,*,#405,.F.);
#543=ORIENTED_EDGE('',*,*,#406,.F.);
#544=ORIENTED_EDGE('',*,*,#407,.F.);
#545=ORIENTED_EDGE('',*,*,#408,.F.);
#546=ORIENTED_EDGE('',*,*,#409,.F.);
#547=ORIENTED_EDGE('',*,*,#410,.F.);
#548=ORIENTED_EDGE('',*,*,#379,.T.);
#549=ORIENTED_EDGE('',*,*,#383,.T.);
#550=ORIENTED_EDGE('',*,*,#386,.T.);
#551=ORIENTED_EDGE('',*,*,#389,.T.);
#552=ORIENTED_EDGE('',*,*,#392,.T.);
#553=ORIENTED_EDGE('',*,*,#395,.T.);
#554=ORIENTED_EDGE('',*,*,#398,.T.);
#555=ORIENTED_EDGE('',*,*,#401,.T.);
#556=ORIENTED_EDGE('',*,*,#411,.T.);
#557=ORIENTED_EDGE('',*,*,#412,.T.);
#558=ORIENTED_EDGE('',*,*,#403,.T.);
#559=ORIENTED_EDGE('',*,*,#413,.T.);
#560=ORIENTED_EDGE('',*,*,#413,.F.);
#561=ORIENTED_EDGE('',*,*,#410,.T.);
#562=ORIENTED_EDGE('',*,*,#414,.F.);
#563=ORIENTED_EDGE('',*,*,#415,.F.);
#564=ORIENTED_EDGE('',*,*,#355,.T.);
#565=ORIENTED_EDGE('',*,*,#359,.T.);
#566=ORIENTED_EDGE('',*,*,#362,.T.);
#567=ORIENTED_EDGE('',*,*,#365,.T.);
#568=ORIENTED_EDGE('',*,*,#368,.T.);
#569=ORIENTED_EDGE('',*,*,#371,.T.);
#570=ORIENTED_EDGE('',*,*,#374,.T.);
#571=ORIENTED_EDGE('',*,*,#377,.T.);
#572=ORIENTED_EDGE('',*,*,#342,.T.);
#573=ORIENTED_EDGE('',*,*,#348,.T.);
#574=ORIENTED_EDGE('',*,*,#354,.T.);
#575=ORIENTED_EDGE('',*,*,#416,.T.);
#576=ORIENTED_EDGE('',*,*,#417,.T.);
#577=ORIENTED_EDGE('',*,*,#405,.T.);
#578=ORIENTED_EDGE('',*,*,#418,.T.);
#579=ORIENTED_EDGE('',*,*,#417,.F.);
#580=ORIENTED_EDGE('',*,*,#419,.F.);
#581=ORIENTED_EDGE('',*,*,#420,.F.);
#582=ORIENTED_EDGE('',*,*,#406,.T.);
#583=ORIENTED_EDGE('',*,*,#412,.F.);
#584=ORIENTED_EDGE('',*,*,#421,.F.);
#585=ORIENTED_EDGE('',*,*,#418,.F.);
#586=ORIENTED_EDGE('',*,*,#404,.T.);
#587=ORIENTED_EDGE('',*,*,#422,.T.);
#588=ORIENTED_EDGE('',*,*,#423,.T.);
#589=ORIENTED_EDGE('',*,*,#407,.T.);
#590=ORIENTED_EDGE('',*,*,#420,.T.);
#591=ORIENTED_EDGE('',*,*,#423,.F.);
#592=ORIENTED_EDGE('',*,*,#424,.F.);
#593=ORIENTED_EDGE('',*,*,#425,.F.);
#594=ORIENTED_EDGE('',*,*,#408,.T.);
#595=ORIENTED_EDGE('',*,*,#426,.T.);
#596=ORIENTED_EDGE('',*,*,#414,.T.);
#597=ORIENTED_EDGE('',*,*,#409,.T.);
#598=ORIENTED_EDGE('',*,*,#425,.T.);
#599=ORIENTED_EDGE('',*,*,#411,.F.);
#600=ORIENTED_EDGE('',*,*,#415,.T.);
#601=ORIENTED_EDGE('',*,*,#426,.F.);
#602=ORIENTED_EDGE('',*,*,#424,.T.);
#603=ORIENTED_EDGE('',*,*,#422,.F.);
#604=ORIENTED_EDGE('',*,*,#419,.T.);
#605=ORIENTED_EDGE('',*,*,#416,.F.);
#606=ORIENTED_EDGE('',*,*,#421,.T.);
#607=CYLINDRICAL_SURFACE('',#679,0.849999999999991);
#608=CYLINDRICAL_SURFACE('',#683,2.99999999999999);
#609=CYLINDRICAL_SURFACE('',#687,0.849999999999991);
#610=CYLINDRICAL_SURFACE('',#691,2.99999999999999);
#611=CYLINDRICAL_SURFACE('',#695,0.85);
#612=CYLINDRICAL_SURFACE('',#699,3.00000000000001);
#613=CYLINDRICAL_SURFACE('',#704,0.800000000000027);
#614=CYLINDRICAL_SURFACE('',#708,0.800000000000054);
#615=CYLINDRICAL_SURFACE('',#712,0.800000000000036);
#616=CYLINDRICAL_SURFACE('',#716,0.80000000000001);
#617=CYLINDRICAL_SURFACE('',#720,1.80000000000003);
#618=CYLINDRICAL_SURFACE('',#724,1.80000000000005);
#619=CYLINDRICAL_SURFACE('',#728,1.80000000000003);
#620=CYLINDRICAL_SURFACE('',#732,1.80000000000001);
#621=CYLINDRICAL_SURFACE('',#741,4.00000000000002);
#622=CYLINDRICAL_SURFACE('',#745,4.00000000000001);
#623=CYLINDRICAL_SURFACE('',#749,4.00000000000002);
#624=CYLINDRICAL_SURFACE('',#752,4.00000000000002);
#625=ADVANCED_FACE('',(#45),#607,.F.);
#626=ADVANCED_FACE('',(#46),#23,.T.);
#627=ADVANCED_FACE('',(#47),#608,.T.);
#628=ADVANCED_FACE('',(#48,#15),#24,.T.);
#629=ADVANCED_FACE('',(#49),#609,.F.);
#630=ADVANCED_FACE('',(#50),#25,.T.);
#631=ADVANCED_FACE('',(#51),#610,.T.);
#632=ADVANCED_FACE('',(#52,#16),#26,.T.);
#633=ADVANCED_FACE('',(#53),#611,.F.);
#634=ADVANCED_FACE('',(#54),#27,.T.);
#635=ADVANCED_FACE('',(#55),#612,.T.);
#636=ADVANCED_FACE('',(#56,#17),#28,.T.);
#637=ADVANCED_FACE('',(#57),#29,.T.);
#638=ADVANCED_FACE('',(#58),#613,.F.);
#639=ADVANCED_FACE('',(#59),#30,.T.);
#640=ADVANCED_FACE('',(#60),#614,.F.);
#641=ADVANCED_FACE('',(#61),#31,.T.);
#642=ADVANCED_FACE('',(#62),#615,.F.);
#643=ADVANCED_FACE('',(#63),#32,.T.);
#644=ADVANCED_FACE('',(#64),#616,.F.);
#645=ADVANCED_FACE('',(#65),#33,.T.);
#646=ADVANCED_FACE('',(#66),#617,.T.);
#647=ADVANCED_FACE('',(#67),#34,.T.);
#648=ADVANCED_FACE('',(#68),#618,.T.);
#649=ADVANCED_FACE('',(#69),#35,.T.);
#650=ADVANCED_FACE('',(#70),#619,.T.);
#651=ADVANCED_FACE('',(#71),#36,.T.);
#652=ADVANCED_FACE('',(#72),#620,.T.);
#653=ADVANCED_FACE('',(#73,#18),#37,.T.);
#654=ADVANCED_FACE('',(#74,#19),#38,.F.);
#655=ADVANCED_FACE('',(#75),#621,.T.);
#656=ADVANCED_FACE('',(#76),#39,.T.);
#657=ADVANCED_FACE('',(#77,#20,#21,#22),#40,.F.);
#658=ADVANCED_FACE('',(#78),#622,.T.);
#659=ADVANCED_FACE('',(#79),#41,.T.);
#660=ADVANCED_FACE('',(#80),#42,.T.);
#661=ADVANCED_FACE('',(#81),#623,.T.);
#662=ADVANCED_FACE('',(#82),#43,.T.);
#663=ADVANCED_FACE('',(#83),#624,.T.);
#664=ADVANCED_FACE('',(#84),#44,.T.);
#665=CLOSED_SHELL('',(#625,#626,#627,#628,#629,#630,#631,#632,#633,#634,
#635,#636,#637,#638,#639,#640,#641,#642,#643,#644,#645,#646,#647,#648,#649,
#650,#651,#652,#653,#654,#655,#656,#657,#658,#659,#660,#661,#662,#663,#664));
#666=DERIVED_UNIT_ELEMENT(#668,1.);
#667=DERIVED_UNIT_ELEMENT(#1159,-3.);
#668=(
MASS_UNIT()
NAMED_UNIT(*)
SI_UNIT(.KILO.,.GRAM.)
);
#669=DERIVED_UNIT((#666,#667));
#670=MEASURE_REPRESENTATION_ITEM('density measure',
POSITIVE_RATIO_MEASURE(7850.),#669);
#671=PROPERTY_DEFINITION_REPRESENTATION(#676,#673);
#672=PROPERTY_DEFINITION_REPRESENTATION(#677,#674);
#673=REPRESENTATION('material name',(#675),#1156);
#674=REPRESENTATION('density',(#670),#1156);
#675=DESCRIPTIVE_REPRESENTATION_ITEM('Steel','Steel');
#676=PROPERTY_DEFINITION('material property','material name',#1166);
#677=PROPERTY_DEFINITION('material property','density of part',#1166);
#678=AXIS2_PLACEMENT_3D('',#963,#755,#756);
#679=AXIS2_PLACEMENT_3D('',#964,#757,#758);
#680=AXIS2_PLACEMENT_3D('',#966,#759,#760);
#681=AXIS2_PLACEMENT_3D('',#969,#762,#763);
#682=AXIS2_PLACEMENT_3D('',#970,#764,#765);
#683=AXIS2_PLACEMENT_3D('',#971,#766,#767);
#684=AXIS2_PLACEMENT_3D('',#973,#768,#769);
#685=AXIS2_PLACEMENT_3D('',#976,#771,#772);
#686=AXIS2_PLACEMENT_3D('',#977,#773,#774);
#687=AXIS2_PLACEMENT_3D('',#978,#775,#776);
#688=AXIS2_PLACEMENT_3D('',#980,#777,#778);
#689=AXIS2_PLACEMENT_3D('',#983,#780,#781);
#690=AXIS2_PLACEMENT_3D('',#984,#782,#783);
#691=AXIS2_PLACEMENT_3D('',#985,#784,#785);
#692=AXIS2_PLACEMENT_3D('',#987,#786,#787);
#693=AXIS2_PLACEMENT_3D('',#990,#789,#790);
#694=AXIS2_PLACEMENT_3D('',#991,#791,#792);
#695=AXIS2_PLACEMENT_3D('',#992,#793,#794);
#696=AXIS2_PLACEMENT_3D('',#994,#795,#796);
#697=AXIS2_PLACEMENT_3D('',#997,#798,#799);
#698=AXIS2_PLACEMENT_3D('',#998,#800,#801);
#699=AXIS2_PLACEMENT_3D('',#999,#802,#803);
#700=AXIS2_PLACEMENT_3D('',#1001,#804,#805);
#701=AXIS2_PLACEMENT_3D('',#1004,#807,#808);
#702=AXIS2_PLACEMENT_3D('',#1005,#809,#810);
#703=AXIS2_PLACEMENT_3D('',#1006,#811,#812);
#704=AXIS2_PLACEMENT_3D('',#1015,#817,#818);
#705=AXIS2_PLACEMENT_3D('',#1017,#819,#820);
#706=AXIS2_PLACEMENT_3D('',#1019,#821,#822);
#707=AXIS2_PLACEMENT_3D('',#1021,#824,#825);
#708=AXIS2_PLACEMENT_3D('',#1027,#829,#830);
#709=AXIS2_PLACEMENT_3D('',#1029,#831,#832);
#710=AXIS2_PLACEMENT_3D('',#1031,#833,#834);
#711=AXIS2_PLACEMENT_3D('',#1033,#836,#837);
#712=AXIS2_PLACEMENT_3D('',#1039,#841,#842);
#713=AXIS2_PLACEMENT_3D('',#1041,#843,#844);
#714=AXIS2_PLACEMENT_3D('',#1043,#845,#846);
#715=AXIS2_PLACEMENT_3D('',#1045,#848,#849);
#716=AXIS2_PLACEMENT_3D('',#1051,#853,#854);
#717=AXIS2_PLACEMENT_3D('',#1052,#855,#856);
#718=AXIS2_PLACEMENT_3D('',#1053,#857,#858);
#719=AXIS2_PLACEMENT_3D('',#1054,#859,#860);
#720=AXIS2_PLACEMENT_3D('',#1063,#865,#866);
#721=AXIS2_PLACEMENT_3D('',#1065,#867,#868);
#722=AXIS2_PLACEMENT_3D('',#1067,#869,#870);
#723=AXIS2_PLACEMENT_3D('',#1069,#872,#873);
#724=AXIS2_PLACEMENT_3D('',#1075,#877,#878);
#725=AXIS2_PLACEMENT_3D('',#1077,#879,#880);
#726=AXIS2_PLACEMENT_3D('',#1079,#881,#882);
#727=AXIS2_PLACEMENT_3D('',#1081,#884,#885);
#728=AXIS2_PLACEMENT_3D('',#1087,#889,#890);
#729=AXIS2_PLACEMENT_3D('',#1089,#891,#892);
#730=AXIS2_PLACEMENT_3D('',#1091,#893,#894);
#731=AXIS2_PLACEMENT_3D('',#1093,#896,#897);
#732=AXIS2_PLACEMENT_3D('',#1099,#901,#902);
#733=AXIS2_PLACEMENT_3D('',#1100,#903,#904);
#734=AXIS2_PLACEMENT_3D('',#1101,#905,#906);
#735=AXIS2_PLACEMENT_3D('',#1102,#907,#908);
#736=AXIS2_PLACEMENT_3D('',#1103,#909,#910);
#737=AXIS2_PLACEMENT_3D('',#1106,#911,#912);
#738=AXIS2_PLACEMENT_3D('',#1110,#914,#915);
#739=AXIS2_PLACEMENT_3D('',#1114,#917,#918);
#740=AXIS2_PLACEMENT_3D('',#1118,#920,#921);
#741=AXIS2_PLACEMENT_3D('',#1120,#923,#924);
#742=AXIS2_PLACEMENT_3D('',#1123,#925,#926);
#743=AXIS2_PLACEMENT_3D('',#1126,#929,#930);
#744=AXIS2_PLACEMENT_3D('',#1130,#933,#934);
#745=AXIS2_PLACEMENT_3D('',#1131,#935,#936);
#746=AXIS2_PLACEMENT_3D('',#1134,#937,#938);
#747=AXIS2_PLACEMENT_3D('',#1137,#941,#942);
#748=AXIS2_PLACEMENT_3D('',#1141,#945,#946);
#749=AXIS2_PLACEMENT_3D('',#1143,#948,#949);
#750=AXIS2_PLACEMENT_3D('',#1145,#950,#951);
#751=AXIS2_PLACEMENT_3D('',#1147,#953,#954);
#752=AXIS2_PLACEMENT_3D('',#1151,#957,#958);
#753=AXIS2_PLACEMENT_3D('',#1152,#959,#960);
#754=AXIS2_PLACEMENT_3D('',#1153,#961,#962);
#755=DIRECTION('axis',(0.,0.,1.));
#756=DIRECTION('refdir',(1.,0.,0.));
#757=DIRECTION('center_axis',(0.,0.,-1.));
#758=DIRECTION('ref_axis',(-1.,0.,0.));
#759=DIRECTION('center_axis',(0.,0.,-1.));
#760=DIRECTION('ref_axis',(-1.,0.,0.));
#761=DIRECTION('',(0.,0.,-1.));
#762=DIRECTION('center_axis',(0.,0.,-1.));
#763=DIRECTION('ref_axis',(-1.,0.,0.));
#764=DIRECTION('center_axis',(0.,0.,1.));
#765=DIRECTION('ref_axis',(-1.,0.,0.));
#766=DIRECTION('center_axis',(0.,0.,1.));
#767=DIRECTION('ref_axis',(-1.,0.,0.));
#768=DIRECTION('center_axis',(0.,0.,1.));
#769=DIRECTION('ref_axis',(-1.,0.,0.));
#770=DIRECTION('',(0.,0.,-1.));
#771=DIRECTION('center_axis',(0.,0.,-1.));
#772=DIRECTION('ref_axis',(-1.,0.,0.));
#773=DIRECTION('center_axis',(0.,0.,1.));
#774=DIRECTION('ref_axis',(-1.,0.,0.));
#775=DIRECTION('center_axis',(0.,0.,-1.));
#776=DIRECTION('ref_axis',(-1.,0.,0.));
#777=DIRECTION('center_axis',(0.,0.,-1.));
#778=DIRECTION('ref_axis',(-1.,0.,0.));
#779=DIRECTION('',(0.,0.,-1.));
#780=DIRECTION('center_axis',(0.,0.,-1.));
#781=DIRECTION('ref_axis',(-1.,0.,0.));
#782=DIRECTION('center_axis',(0.,0.,1.));
#783=DIRECTION('ref_axis',(-1.,0.,0.));
#784=DIRECTION('center_axis',(0.,0.,1.));
#785=DIRECTION('ref_axis',(-1.,0.,0.));
#786=DIRECTION('center_axis',(0.,0.,1.));
#787=DIRECTION('ref_axis',(-1.,0.,0.));
#788=DIRECTION('',(0.,0.,-1.));
#789=DIRECTION('center_axis',(0.,0.,-1.));
#790=DIRECTION('ref_axis',(-1.,0.,0.));
#791=DIRECTION('center_axis',(0.,0.,1.));
#792=DIRECTION('ref_axis',(-1.,0.,0.));
#793=DIRECTION('center_axis',(0.,0.,-1.));
#794=DIRECTION('ref_axis',(-1.,0.,0.));
#795=DIRECTION('center_axis',(0.,0.,-1.));
#796=DIRECTION('ref_axis',(-1.,0.,0.));
#797=DIRECTION('',(0.,0.,-1.));
#798=DIRECTION('center_axis',(0.,0.,-1.));
#799=DIRECTION('ref_axis',(-1.,0.,0.));
#800=DIRECTION('center_axis',(0.,0.,1.));
#801=DIRECTION('ref_axis',(-1.,0.,0.));
#802=DIRECTION('center_axis',(0.,0.,1.));
#803=DIRECTION('ref_axis',(-1.,0.,0.));
#804=DIRECTION('center_axis',(0.,0.,1.));
#805=DIRECTION('ref_axis',(-1.,0.,0.));
#806=DIRECTION('',(0.,0.,-1.));
#807=DIRECTION('center_axis',(0.,0.,-1.));
#808=DIRECTION('ref_axis',(-1.,0.,0.));
#809=DIRECTION('center_axis',(0.,0.,1.));
#810=DIRECTION('ref_axis',(-1.,0.,0.));
#811=DIRECTION('center_axis',(1.,-8.45884209238215E-17,0.));
#812=DIRECTION('ref_axis',(8.45884209238215E-17,1.,0.));
#813=DIRECTION('',(-8.45884209238215E-17,-1.,0.));
#814=DIRECTION('',(0.,0.,1.));
#815=DIRECTION('',(8.45884209238215E-17,1.,0.));
#816=DIRECTION('',(0.,0.,1.));
#817=DIRECTION('center_axis',(0.,0.,1.));
#818=DIRECTION('ref_axis',(-1.,-2.22044604925024E-14,0.));
#819=DIRECTION('center_axis',(0.,0.,1.));
#820=DIRECTION('ref_axis',(-1.,-2.22044604925024E-14,0.));
#821=DIRECTION('center_axis',(0.,0.,-1.));
#822=DIRECTION('ref_axis',(-1.,-2.22044604925024E-14,0.));
#823=DIRECTION('',(0.,0.,1.));
#824=DIRECTION('center_axis',(0.,1.,0.));
#825=DIRECTION('ref_axis',(-1.,0.,0.));
#826=DIRECTION('',(1.,0.,0.));
#827=DIRECTION('',(-1.,0.,0.));
#828=DIRECTION('',(0.,0.,1.));
#829=DIRECTION('center_axis',(0.,0.,1.));
#830=DIRECTION('ref_axis',(4.44089209850033E-14,-1.,0.));
#831=DIRECTION('center_axis',(0.,0.,1.));
#832=DIRECTION('ref_axis',(4.44089209850033E-14,-1.,0.));
#833=DIRECTION('center_axis',(0.,0.,-1.));
#834=DIRECTION('ref_axis',(4.44089209850033E-14,-1.,0.));
#835=DIRECTION('',(0.,0.,1.));
#836=DIRECTION('center_axis',(-1.,0.,0.));
#837=DIRECTION('ref_axis',(0.,-1.,0.));
#838=DIRECTION('',(0.,1.,0.));
#839=DIRECTION('',(0.,-1.,0.));
#840=DIRECTION('',(0.,0.,1.));
#841=DIRECTION('center_axis',(0.,0.,1.));
#842=DIRECTION('ref_axis',(1.,2.22044604925021E-14,0.));
#843=DIRECTION('center_axis',(0.,0.,1.));
#844=DIRECTION('ref_axis',(1.,2.22044604925021E-14,0.));
#845=DIRECTION('center_axis',(0.,0.,-1.));
#846=DIRECTION('ref_axis',(1.,2.22044604925021E-14,0.));
#847=DIRECTION('',(0.,0.,1.));
#848=DIRECTION('center_axis',(0.,-1.,0.));
#849=DIRECTION('ref_axis',(1.,0.,0.));
#850=DIRECTION('',(-1.,0.,0.));
#851=DIRECTION('',(1.,0.,0.));
#852=DIRECTION('',(0.,0.,1.));
#853=DIRECTION('center_axis',(0.,0.,1.));
#854=DIRECTION('ref_axis',(0.,1.,0.));
#855=DIRECTION('center_axis',(0.,0.,1.));
#856=DIRECTION('ref_axis',(0.,1.,0.));
#857=DIRECTION('center_axis',(0.,0.,-1.));
#858=DIRECTION('ref_axis',(0.,1.,0.));
#859=DIRECTION('center_axis',(0.,1.,0.));
#860=DIRECTION('ref_axis',(-1.,0.,0.));
#861=DIRECTION('',(1.,0.,0.));
#862=DIRECTION('',(0.,0.,1.));
#863=DIRECTION('',(-1.,0.,0.));
#864=DIRECTION('',(0.,0.,1.));
#865=DIRECTION('center_axis',(0.,0.,1.));
#866=DIRECTION('ref_axis',(1.,9.86864910777899E-15,0.));
#867=DIRECTION('center_axis',(0.,0.,-1.));
#868=DIRECTION('ref_axis',(1.,9.86864910777899E-15,0.));
#869=DIRECTION('center_axis',(0.,0.,1.));
#870=DIRECTION('ref_axis',(1.,9.86864910777899E-15,0.));
#871=DIRECTION('',(0.,0.,1.));
#872=DIRECTION('center_axis',(1.,0.,0.));
#873=DIRECTION('ref_axis',(0.,1.,0.));
#874=DIRECTION('',(0.,-1.,0.));
#875=DIRECTION('',(0.,1.,0.));
#876=DIRECTION('',(0.,0.,1.));
#877=DIRECTION('center_axis',(0.,0.,1.));
#878=DIRECTION('ref_axis',(1.97372982155578E-14,-1.,0.));
#879=DIRECTION('center_axis',(0.,0.,-1.));
#880=DIRECTION('ref_axis',(1.97372982155578E-14,-1.,0.));
#881=DIRECTION('center_axis',(0.,0.,1.));
#882=DIRECTION('ref_axis',(1.97372982155578E-14,-1.,0.));
#883=DIRECTION('',(0.,0.,1.));
#884=DIRECTION('center_axis',(0.,-1.,0.));
#885=DIRECTION('ref_axis',(1.,0.,0.));
#886=DIRECTION('',(-1.,0.,0.));
#887=DIRECTION('',(1.,0.,0.));
#888=DIRECTION('',(0.,0.,1.));
#889=DIRECTION('center_axis',(0.,0.,1.));
#890=DIRECTION('ref_axis',(-1.,-9.86864910777901E-15,0.));
#891=DIRECTION('center_axis',(0.,0.,-1.));
#892=DIRECTION('ref_axis',(-1.,-9.86864910777901E-15,0.));
#893=DIRECTION('center_axis',(0.,0.,1.));
#894=DIRECTION('ref_axis',(-1.,-9.86864910777901E-15,0.));
#895=DIRECTION('',(0.,0.,1.));
#896=DIRECTION('center_axis',(-1.,8.45884209238215E-17,0.));
#897=DIRECTION('ref_axis',(-8.45884209238215E-17,-1.,0.));
#898=DIRECTION('',(8.45884209238215E-17,1.,0.));
#899=DIRECTION('',(-8.45884209238215E-17,-1.,0.));
#900=DIRECTION('',(0.,0.,1.));
#901=DIRECTION('center_axis',(0.,0.,1.));
#902=DIRECTION('ref_axis',(0.,1.,0.));
#903=DIRECTION('center_axis',(0.,0.,-1.));
#904=DIRECTION('ref_axis',(0.,1.,0.));
#905=DIRECTION('center_axis',(0.,0.,1.));
#906=DIRECTION('ref_axis',(0.,1.,0.));
#907=DIRECTION('center_axis',(0.,0.,1.));
#908=DIRECTION('ref_axis',(-1.,0.,0.));
#909=DIRECTION('center_axis',(0.,0.,-1.));
#910=DIRECTION('ref_axis',(1.,0.,0.));
#911=DIRECTION('center_axis',(0.,0.,-1.));
#912=DIRECTION('ref_axis',(0.707106781186548,0.707106781186548,0.));
#913=DIRECTION('',(1.,0.,0.));
#914=DIRECTION('center_axis',(0.,0.,-1.));
#915=DIRECTION('ref_axis',(-0.707106781186549,0.707106781186546,0.));
#916=DIRECTION('',(0.,1.,0.));
#917=DIRECTION('center_axis',(0.,0.,-1.));
#918=DIRECTION('ref_axis',(-0.707106781186548,-0.707106781186548,0.));
#919=DIRECTION('',(-1.,0.,0.));
#920=DIRECTION('center_axis',(0.,0.,-1.));
#921=DIRECTION('ref_axis',(0.707106781186548,-0.707106781186548,0.));
#922=DIRECTION('',(0.,-1.,0.));
#923=DIRECTION('center_axis',(0.,0.,-1.));
#924=DIRECTION('ref_axis',(0.707106781186548,0.707106781186548,0.));
#925=DIRECTION('center_axis',(0.,0.,1.));
#926=DIRECTION('ref_axis',(0.707106781186548,0.707106781186548,0.));
#927=DIRECTION('',(0.,0.,1.));
#928=DIRECTION('',(0.,0.,-1.));
#929=DIRECTION('center_axis',(1.,0.,0.));
#930=DIRECTION('ref_axis',(0.,-1.,0.));
#931=DIRECTION('',(0.,0.,1.));
#932=DIRECTION('',(0.,-1.,0.));
#933=DIRECTION('center_axis',(0.,0.,-1.));
#934=DIRECTION('ref_axis',(1.,0.,0.));
#935=DIRECTION('center_axis',(0.,0.,-1.));
#936=DIRECTION('ref_axis',(-0.707106781186549,0.707106781186546,0.));
#937=DIRECTION('center_axis',(0.,0.,1.));
#938=DIRECTION('ref_axis',(-0.707106781186549,0.707106781186546,0.));
#939=DIRECTION('',(0.,0.,1.));
#940=DIRECTION('',(0.,0.,-1.));
#941=DIRECTION('center_axis',(-1.,0.,0.));
#942=DIRECTION('ref_axis',(0.,1.,0.));
#943=DIRECTION('',(0.,1.,0.));
#944=DIRECTION('',(0.,0.,-1.));
#945=DIRECTION('center_axis',(0.,1.,0.));
#946=DIRECTION('ref_axis',(1.,0.,0.));
#947=DIRECTION('',(1.,0.,0.));
#948=DIRECTION('center_axis',(0.,0.,-1.));
#949=DIRECTION('ref_axis',(-0.707106781186548,-0.707106781186548,0.));
#950=DIRECTION('center_axis',(0.,0.,1.));
#951=DIRECTION('ref_axis',(-0.707106781186548,-0.707106781186548,0.));
#952=DIRECTION('',(0.,0.,1.));
#953=DIRECTION('center_axis',(0.,-1.,0.));
#954=DIRECTION('ref_axis',(-1.,0.,0.));
#955=DIRECTION('',(-1.,0.,0.));
#956=DIRECTION('',(0.,0.,-1.));
#957=DIRECTION('center_axis',(0.,0.,-1.));
#958=DIRECTION('ref_axis',(0.707106781186548,-0.707106781186548,0.));
#959=DIRECTION('center_axis',(0.,0.,1.));
#960=DIRECTION('ref_axis',(0.707106781186548,-0.707106781186548,0.));
#961=DIRECTION('center_axis',(0.,0.,-1.));
#962=DIRECTION('ref_axis',(1.,0.,0.));
#963=CARTESIAN_POINT('',(0.,0.,0.));
#964=CARTESIAN_POINT('Origin',(123.7,-145.1,2.22044604925031E-15));
#965=CARTESIAN_POINT('',(124.55,-145.1,2.22044604925031E-15));
#966=CARTESIAN_POINT('Origin',(123.7,-145.1,2.22044604925031E-15));
#967=CARTESIAN_POINT('',(124.55,-145.1,-6.5));
#968=CARTESIAN_POINT('',(124.55,-145.1,2.22044604925031E-15));
#969=CARTESIAN_POINT('Origin',(123.7,-145.1,-6.5));
#970=CARTESIAN_POINT('Origin',(123.7,-145.1,-6.5));
#971=CARTESIAN_POINT('Origin',(123.7,-145.1,-8.));
#972=CARTESIAN_POINT('',(126.7,-145.1,2.22044604925031E-15));
#973=CARTESIAN_POINT('Origin',(123.7,-145.1,2.22044604925031E-15));
#974=CARTESIAN_POINT('',(126.7,-145.1,-8.));
#975=CARTESIAN_POINT('',(126.7,-145.1,-8.));
#976=CARTESIAN_POINT('Origin',(123.7,-145.1,-8.));
#977=CARTESIAN_POINT('Origin',(123.7,-145.1,2.22044604925031E-15));
#978=CARTESIAN_POINT('Origin',(87.3,-57.7,2.22044604925031E-15));
#979=CARTESIAN_POINT('',(88.15,-57.7,2.22044604925031E-15));
#980=CARTESIAN_POINT('Origin',(87.3,-57.7,2.22044604925031E-15));
#981=CARTESIAN_POINT('',(88.15,-57.7,-6.5));
#982=CARTESIAN_POINT('',(88.15,-57.7,2.22044604925031E-15));
#983=CARTESIAN_POINT('Origin',(87.3,-57.7,-6.5));
#984=CARTESIAN_POINT('Origin',(87.3,-57.7,-6.5));
#985=CARTESIAN_POINT('Origin',(87.3,-57.7,-8.));
#986=CARTESIAN_POINT('',(90.3,-57.7,2.22044604925031E-15));
#987=CARTESIAN_POINT('Origin',(87.3,-57.7,2.22044604925031E-15));
#988=CARTESIAN_POINT('',(90.3,-57.7,-8.));
#989=CARTESIAN_POINT('',(90.3,-57.7,-8.));
#990=CARTESIAN_POINT('Origin',(87.3,-57.7,-8.));
#991=CARTESIAN_POINT('Origin',(87.3,-57.7,2.22044604925031E-15));
#992=CARTESIAN_POINT('Origin',(50.3,-145.1,2.22044604925031E-15));
#993=CARTESIAN_POINT('',(51.15,-145.1,2.22044604925031E-15));
#994=CARTESIAN_POINT('Origin',(50.3,-145.1,2.22044604925031E-15));
#995=CARTESIAN_POINT('',(51.15,-145.1,-6.5));
#996=CARTESIAN_POINT('',(51.15,-145.1,2.22044604925031E-15));
#997=CARTESIAN_POINT('Origin',(50.3,-145.1,-6.5));
#998=CARTESIAN_POINT('Origin',(50.3,-145.1,-6.5));
#999=CARTESIAN_POINT('Origin',(50.3,-145.1,-8.));
#1000=CARTESIAN_POINT('',(53.3,-145.1,2.22044604925031E-15));
#1001=CARTESIAN_POINT('Origin',(50.3,-145.1,2.22044604925031E-15));
#1002=CARTESIAN_POINT('',(53.3,-145.1,-8.));
#1003=CARTESIAN_POINT('',(53.3,-145.1,-8.));
#1004=CARTESIAN_POINT('Origin',(50.3,-145.1,-8.));
#1005=CARTESIAN_POINT('Origin',(50.3,-145.1,2.22044604925031E-15));
#1006=CARTESIAN_POINT('Origin',(39.2,-155.,-8.));
#1007=CARTESIAN_POINT('',(39.2,-50.,-8.));
#1008=CARTESIAN_POINT('',(39.2,-155.,-8.));
#1009=CARTESIAN_POINT('',(39.2,-128.75,-8.));
#1010=CARTESIAN_POINT('',(39.2,-50.,-6.));
#1011=CARTESIAN_POINT('',(39.2,-50.,-8.));
#1012=CARTESIAN_POINT('',(39.2,-155.,-6.));
#1013=CARTESIAN_POINT('',(39.2,-50.,-6.));
#1014=CARTESIAN_POINT('',(39.2,-155.,-8.));
#1015=CARTESIAN_POINT('Origin',(40.,-155.,-8.));
#1016=CARTESIAN_POINT('',(40.,-155.8,-8.));
#1017=CARTESIAN_POINT('Origin',(40.,-155.,-8.));
#1018=CARTESIAN_POINT('',(40.,-155.8,-6.));
#1019=CARTESIAN_POINT('Origin',(40.,-155.,-6.));
#1020=CARTESIAN_POINT('',(40.,-155.8,-8.));
#1021=CARTESIAN_POINT('Origin',(135.,-155.8,-8.));
#1022=CARTESIAN_POINT('',(135.,-155.8,-8.));
#1023=CARTESIAN_POINT('',(111.25,-155.8,-8.));
#1024=CARTESIAN_POINT('',(135.,-155.8,-6.));
#1025=CARTESIAN_POINT('',(40.,-155.8,-6.));
#1026=CARTESIAN_POINT('',(135.,-155.8,-8.));
#1027=CARTESIAN_POINT('Origin',(135.,-155.,-8.));
#1028=CARTESIAN_POINT('',(135.8,-155.,-8.));
#1029=CARTESIAN_POINT('Origin',(135.,-155.,-8.));
#1030=CARTESIAN_POINT('',(135.8,-155.,-6.));
#1031=CARTESIAN_POINT('Origin',(135.,-155.,-6.));
#1032=CARTESIAN_POINT('',(135.8,-155.,-8.));
#1033=CARTESIAN_POINT('Origin',(135.8,-50.,-8.));
#1034=CARTESIAN_POINT('',(135.8,-50.,-8.));
#1035=CARTESIAN_POINT('',(135.8,-76.25,-8.));
#1036=CARTESIAN_POINT('',(135.8,-50.,-6.));
#1037=CARTESIAN_POINT('',(135.8,-155.,-6.));
#1038=CARTESIAN_POINT('',(135.8,-50.,-8.));
#1039=CARTESIAN_POINT('Origin',(135.,-50.,-8.));
#1040=CARTESIAN_POINT('',(135.,-49.2,-8.));
#1041=CARTESIAN_POINT('Origin',(135.,-50.,-8.));
#1042=CARTESIAN_POINT('',(135.,-49.2,-6.));
#1043=CARTESIAN_POINT('Origin',(135.,-50.,-6.));
#1044=CARTESIAN_POINT('',(135.,-49.2,-8.));
#1045=CARTESIAN_POINT('Origin',(40.,-49.2,-8.));
#1046=CARTESIAN_POINT('',(40.,-49.2,-8.));
#1047=CARTESIAN_POINT('',(63.75,-49.2,-8.));
#1048=CARTESIAN_POINT('',(40.,-49.2,-6.));
#1049=CARTESIAN_POINT('',(135.,-49.2,-6.));
#1050=CARTESIAN_POINT('',(40.,-49.2,-8.));
#1051=CARTESIAN_POINT('Origin',(40.,-50.,-8.));
#1052=CARTESIAN_POINT('Origin',(40.,-50.,-8.));
#1053=CARTESIAN_POINT('Origin',(40.,-50.,-6.));
#1054=CARTESIAN_POINT('Origin',(135.,-48.2,-8.));
#1055=CARTESIAN_POINT('',(40.,-48.2,-8.));
#1056=CARTESIAN_POINT('',(135.,-48.2,-8.));
#1057=CARTESIAN_POINT('',(111.25,-48.2,-8.));
#1058=CARTESIAN_POINT('',(40.,-48.2,-6.));
#1059=CARTESIAN_POINT('',(40.,-48.2,-8.));
#1060=CARTESIAN_POINT('',(135.,-48.2,-6.));
#1061=CARTESIAN_POINT('',(135.,-48.2,-6.));
#1062=CARTESIAN_POINT('',(135.,-48.2,-8.));
#1063=CARTESIAN_POINT('Origin',(135.,-50.,-8.));
#1064=CARTESIAN_POINT('',(136.8,-50.,-8.));
#1065=CARTESIAN_POINT('Origin',(135.,-50.,-8.));
#1066=CARTESIAN_POINT('',(136.8,-50.,-6.));
#1067=CARTESIAN_POINT('Origin',(135.,-50.,-6.));
#1068=CARTESIAN_POINT('',(136.8,-50.,-8.));
#1069=CARTESIAN_POINT('Origin',(136.8,-155.,-8.));
#1070=CARTESIAN_POINT('',(136.8,-155.,-8.));
#1071=CARTESIAN_POINT('',(136.8,-128.75,-8.));
#1072=CARTESIAN_POINT('',(136.8,-155.,-6.));
#1073=CARTESIAN_POINT('',(136.8,-155.,-6.));
#1074=CARTESIAN_POINT('',(136.8,-155.,-8.));
#1075=CARTESIAN_POINT('Origin',(135.,-155.,-8.));
#1076=CARTESIAN_POINT('',(135.,-156.8,-8.));
#1077=CARTESIAN_POINT('Origin',(135.,-155.,-8.));
#1078=CARTESIAN_POINT('',(135.,-156.8,-6.));
#1079=CARTESIAN_POINT('Origin',(135.,-155.,-6.));
#1080=CARTESIAN_POINT('',(135.,-156.8,-8.));
#1081=CARTESIAN_POINT('Origin',(40.,-156.8,-8.));
#1082=CARTESIAN_POINT('',(40.,-156.8,-8.));
#1083=CARTESIAN_POINT('',(63.75,-156.8,-8.));
#1084=CARTESIAN_POINT('',(40.,-156.8,-6.));
#1085=CARTESIAN_POINT('',(40.,-156.8,-6.));
#1086=CARTESIAN_POINT('',(40.,-156.8,-8.));
#1087=CARTESIAN_POINT('Origin',(40.,-155.,-8.));
#1088=CARTESIAN_POINT('',(38.2,-155.,-8.));
#1089=CARTESIAN_POINT('Origin',(40.,-155.,-8.));
#1090=CARTESIAN_POINT('',(38.2,-155.,-6.));
#1091=CARTESIAN_POINT('Origin',(40.,-155.,-6.));
#1092=CARTESIAN_POINT('',(38.2,-155.,-8.));
#1093=CARTESIAN_POINT('Origin',(38.2,-50.,-8.));
#1094=CARTESIAN_POINT('',(38.2,-50.,-8.));
#1095=CARTESIAN_POINT('',(38.2,-76.25,-8.));
#1096=CARTESIAN_POINT('',(38.2,-50.,-6.));
#1097=CARTESIAN_POINT('',(38.2,-50.,-6.));
#1098=CARTESIAN_POINT('',(38.2,-50.,-8.));
#1099=CARTESIAN_POINT('Origin',(40.,-50.,-8.));
#1100=CARTESIAN_POINT('Origin',(40.,-50.,-8.));
#1101=CARTESIAN_POINT('Origin',(40.,-50.,-6.));
#1102=CARTESIAN_POINT('Origin',(87.5,-102.5,-6.));
#1103=CARTESIAN_POINT('Origin',(87.5,-102.5,-8.));
#1104=CARTESIAN_POINT('',(135.,-46.,-8.));
#1105=CARTESIAN_POINT('',(139.,-50.,-8.));
#1106=CARTESIAN_POINT('Origin',(135.,-50.,-8.));
#1107=CARTESIAN_POINT('',(40.,-46.,-8.));
#1108=CARTESIAN_POINT('',(44.,-46.,-8.));
#1109=CARTESIAN_POINT('',(36.,-50.,-8.));
#1110=CARTESIAN_POINT('Origin',(40.,-50.,-8.));
#1111=CARTESIAN_POINT('',(36.,-155.,-8.));
#1112=CARTESIAN_POINT('',(36.,-151.,-8.));
#1113=CARTESIAN_POINT('',(40.,-159.,-8.));
#1114=CARTESIAN_POINT('Origin',(40.,-155.,-8.));
#1115=CARTESIAN_POINT('',(135.,-159.,-8.));
#1116=CARTESIAN_POINT('',(131.,-159.,-8.));
#1117=CARTESIAN_POINT('',(139.,-155.,-8.));
#1118=CARTESIAN_POINT('Origin',(135.,-155.,-8.));
#1119=CARTESIAN_POINT('',(139.,-54.,-8.));
#1120=CARTESIAN_POINT('Origin',(135.,-50.,-8.));
#1121=CARTESIAN_POINT('',(139.,-50.,-10.));
#1122=CARTESIAN_POINT('',(135.,-46.,-10.));
#1123=CARTESIAN_POINT('Origin',(135.,-50.,-10.));
#1124=CARTESIAN_POINT('',(135.,-46.,-8.));
#1125=CARTESIAN_POINT('',(139.,-50.,-8.));
#1126=CARTESIAN_POINT('Origin',(139.,-54.,-8.));
#1127=CARTESIAN_POINT('',(139.,-155.,-10.));
#1128=CARTESIAN_POINT('',(139.,-155.,-8.));
#1129=CARTESIAN_POINT('',(139.,-78.25,-10.));
#1130=CARTESIAN_POINT('Origin',(87.5,-102.5,-8.));
#1131=CARTESIAN_POINT('Origin',(40.,-50.,-8.));
#1132=CARTESIAN_POINT('',(40.,-46.,-10.));
#1133=CARTESIAN_POINT('',(36.,-50.,-10.));
#1134=CARTESIAN_POINT('Origin',(40.,-50.,-10.));
#1135=CARTESIAN_POINT('',(36.,-50.,-8.));
#1136=CARTESIAN_POINT('',(40.,-46.,-8.));
#1137=CARTESIAN_POINT('Origin',(36.,-151.,-8.));
#1138=CARTESIAN_POINT('',(36.,-155.,-10.));
#1139=CARTESIAN_POINT('',(36.,-126.75,-10.));
#1140=CARTESIAN_POINT('',(36.,-155.,-8.));
#1141=CARTESIAN_POINT('Origin',(44.,-46.,-8.));
#1142=CARTESIAN_POINT('',(65.75,-46.,-10.));
#1143=CARTESIAN_POINT('Origin',(40.,-155.,-8.));
#1144=CARTESIAN_POINT('',(40.,-159.,-10.));
#1145=CARTESIAN_POINT('Origin',(40.,-155.,-10.));
#1146=CARTESIAN_POINT('',(40.,-159.,-8.));
#1147=CARTESIAN_POINT('Origin',(131.,-159.,-8.));
#1148=CARTESIAN_POINT('',(135.,-159.,-10.));
#1149=CARTESIAN_POINT('',(109.25,-159.,-10.));
#1150=CARTESIAN_POINT('',(135.,-159.,-8.));
#1151=CARTESIAN_POINT('Origin',(135.,-155.,-8.));
#1152=CARTESIAN_POINT('Origin',(135.,-155.,-10.));
#1153=CARTESIAN_POINT('Origin',(87.5,-102.5,-10.));
#1154=UNCERTAINTY_MEASURE_WITH_UNIT(LENGTH_MEASURE(0.01),#1158,
'DISTANCE_ACCURACY_VALUE',
'Maximum model space distance between geometric entities at asserted c
onnectivities');
#1155=UNCERTAINTY_MEASURE_WITH_UNIT(LENGTH_MEASURE(0.01),#1158,
'DISTANCE_ACCURACY_VALUE',
'Maximum model space distance between geometric entities at asserted c
onnectivities');
#1156=(
GEOMETRIC_REPRESENTATION_CONTEXT(3)
GLOBAL_UNCERTAINTY_ASSIGNED_CONTEXT((#1154))
GLOBAL_UNIT_ASSIGNED_CONTEXT((#1158,#1160,#1161))
REPRESENTATION_CONTEXT('','3D')
);
#1157=(
GEOMETRIC_REPRESENTATION_CONTEXT(3)
GLOBAL_UNCERTAINTY_ASSIGNED_CONTEXT((#1155))
GLOBAL_UNIT_ASSIGNED_CONTEXT((#1158,#1160,#1161))
REPRESENTATION_CONTEXT('','3D')
);
#1158=(
LENGTH_UNIT()
NAMED_UNIT(*)
SI_UNIT(.MILLI.,.METRE.)
);
#1159=(
LENGTH_UNIT()
NAMED_UNIT(*)
SI_UNIT($,.METRE.)
);
#1160=(
NAMED_UNIT(*)
PLANE_ANGLE_UNIT()
SI_UNIT($,.RADIAN.)
);
#1161=(
NAMED_UNIT(*)
SI_UNIT($,.STERADIAN.)
SOLID_ANGLE_UNIT()
);
#1162=SHAPE_DEFINITION_REPRESENTATION(#1163,#1164);
#1163=PRODUCT_DEFINITION_SHAPE('',$,#1166);
#1164=SHAPE_REPRESENTATION('',(#678),#1156);
#1165=PRODUCT_DEFINITION_CONTEXT('part definition',#1170,'design');
#1166=PRODUCT_DEFINITION('2026-08-14-20-43-51-855','BottomCase',#1167,#1165);
#1167=PRODUCT_DEFINITION_FORMATION('',$,#1172);
#1168=PRODUCT_RELATED_PRODUCT_CATEGORY('BottomCase','BottomCase',(#1172));
#1169=APPLICATION_PROTOCOL_DEFINITION('international standard',
'automotive_design',2009,#1170);
#1170=APPLICATION_CONTEXT(
'Core Data for Automotive Mechanical Design Process');
#1171=PRODUCT_CONTEXT('part definition',#1170,'mechanical');
#1172=PRODUCT('2026-08-14-20-43-51-855','BottomCase',$,(#1171));
#1173=PRESENTATION_STYLE_ASSIGNMENT((#1174));
#1174=SURFACE_STYLE_USAGE(.BOTH.,#1175);
#1175=SURFACE_SIDE_STYLE('',(#1176));
#1176=SURFACE_STYLE_FILL_AREA(#1177);
#1177=FILL_AREA_STYLE('Steel - Satin',(#1178));
#1178=FILL_AREA_STYLE_COLOUR('Steel - Satin',#1179);
#1179=COLOUR_RGB('Steel - Satin',0.627450980392157,0.627450980392157,0.627450980392157);
ENDSEC;
END-ISO-10303-21;
